<?xml version="1.0" encoding="UTF-8"?>
<!DOCTYPE svg PUBLIC "-//W3C//DTD SVG 1.1//EN" "http://www.w3.org/Graphics/SVG/1.1/DTD/svg11.dtd">
<!-- Creator: CorelDRAW 2021 (64-Bit) -->
<svg xmlns="http://www.w3.org/2000/svg" xml:space="preserve" width="246px" height="300px" version="1.1" style="shape-rendering:geometricPrecision; text-rendering:geometricPrecision; image-rendering:optimizeQuality; fill-rule:evenodd; clip-rule:evenodd"
viewBox="0 0 246 300.03"
 xmlns:xlink="http://www.w3.org/1999/xlink"
 xmlns:xodm="http://www.corel.com/coreldraw/odm/2003">
 <defs>
  <style type="text/css">
   <![CDATA[
    .fil0 {fill:black}
   ]]>
  </style>
 </defs>
 <g id="Layer_x0020_1">
  <metadata id="CorelCorpID_0Corel-Layer"/>
  <path class="fil0" d="M13.54 272.37c0,-20.19 8.03,-39.82 23,-50.97 3.75,-2.79 6.84,-5.14 11.18,-7.31 15.82,-7.91 29.88,-6.74 48.74,-6.74 0.64,7.69 13.43,19.09 24.46,19.09 8.37,0 13.23,-0.42 20.15,-6.1 2.91,-2.39 2.93,-2.48 5.32,-5.42 1.48,-1.81 3.53,-4.83 3.76,-7.57 18.86,0 32.92,-1.17 48.73,6.74 4.34,2.17 7.44,4.52 11.19,7.31 14.96,11.14 23,30.82 23,50.97l0 16.11 -219.53 0 0 -16.11zm90.67 -82.32c17.86,4.16 20.33,4.16 38.19,0 0,8.54 0,13.81 -3.82,18.85 -7.79,10.28 -22.03,10.65 -30.29,0.34 -4.03,-5.03 -4.08,-10.36 -4.08,-19.19zm9.55 -30.43c0,-6.12 9.8,-4.77 13.72,-4.77 6.94,0 6.94,9.54 0,9.54 -3.92,0 -13.72,1.35 -13.72,-4.77zm-57.27 -10.14l0 -4.18 10.14 0c0.78,3.36 1.64,6.33 2.39,9.55 -6.22,0 -12.53,0.87 -12.53,-5.37zm19.09 -16.7l0 -29.83c0,-7.46 9.29,-4.7 20.78,-6.07 14.04,-1.69 27.94,-7.04 39.67,-14.02 2.66,-1.59 5.94,-3.66 8.24,-5.48 2.76,-2.16 4.77,-4.11 7.67,-6.05 0.51,1.92 4,5.29 5.45,7.07 17.15,21.18 13.64,14.22 13.64,54.38 0,21.98 -10.39,37.57 -27.43,45.94 -2.81,1.38 -5.65,2.4 -9.22,3.31 -17.57,4.49 -38.62,-2.64 -48.66,-17.64l19.09 0c6.06,11.46 11.46,9.55 24.46,9.55 7.3,0 13.13,-6.27 13.13,-15.51 0,-6.56 -6.57,-13.13 -13.13,-13.13 -9.02,0 -18.04,-1.64 -22.78,6.45 -0.89,1.51 -1.06,3.1 -2.87,3.1l-22.67 0c-4.02,0 -5.37,-19.39 -5.37,-22.07zm118.12 2.98l-13.12 0 0 -28.64c8.9,0 18.5,-1.35 24.04,4 9.67,9.35 2.83,24.64 -10.92,24.64zm-156.3 -14.32c0,-7.65 6.43,-14.32 15.51,-14.32l13.12 0 0 28.64c-8.9,0 -18.5,1.35 -24.04,-4 -2.23,-2.16 -4.59,-6.28 -4.59,-10.32zm31.62 -28.04l-2.23 -16.27c-0.94,-7.14 -1.63,-24.23 1.1,-31.39 3.73,-9.77 13.37,-14.98 23.8,-14.98l32.81 0c10.58,0 9.37,6.91 20,9.23 5.78,1.26 32.34,-4.61 35.93,22.54 0.82,6.19 -1.75,20.77 -2.24,26.7l-2.49 -4.08c-1.06,-1.64 -1.84,-2.4 -3.13,-4.02 -1.2,-1.53 -2.04,-2.43 -3.25,-3.92l-12.73 -15.3c-6.26,-6.9 -9.11,1.48 -21.46,9.9 -35.03,23.89 -55.68,9.59 -66.11,21.59zm-12.53 -40.57c0,10.46 0.05,37.38 3.58,44.75l-13.13 0 0 -40.57c0,-26.68 18.66,-45.34 45.34,-45.34l62.05 0c26.67,0 45.34,18.68 45.34,45.34l0 40.57 -13.13 0c2.67,-5.58 3.58,-26.63 3.58,-35.2 0,-16.44 -15.2,-31.72 -32.8,-31.63 -17.69,0.08 -12.77,-2.19 -19.86,-6.39 -2.78,-1.64 -5.81,-3.14 -9.98,-3.14l-39.37 0c-16.26,0 -31.62,15.36 -31.62,31.61zm-28.64 66.82c0,8.07 0.93,12.52 6.62,18.44 3,3.12 7.94,6.52 12.47,6.62 0,7.28 -0.79,13.86 7.94,18.31 4.43,2.26 12.61,1.37 18.91,1.37 3.21,6.07 9.51,12.98 15.08,17.14 1.06,0.78 2,1.57 3.1,2.26 3.66,2.33 2.7,-0.16 2.7,14.01 -26.05,0 -38.12,-1.9 -60.38,13 -16.76,11.22 -30.3,34.17 -30.3,55.01l0 27.44c0,2.89 1.89,4.78 4.77,4.78l229.09 0c2.88,0 4.77,-1.89 4.77,-4.78 0,-20.67 2.08,-35.57 -6.76,-54.69 -4.54,-9.83 -14.44,-21.6 -23.18,-27.52 -3.42,-2.32 -6.89,-4.67 -10.82,-6.48 -18.28,-8.45 -30.2,-6.76 -49.92,-6.76 0,-23.71 -0.8,-3.83 17.64,-28.29 5.54,-7.35 8.03,-14.04 10.4,-24.21 11.37,0 19.69,1.3 27.21,-3.22 13.22,-7.95 15.87,-26.78 4.55,-37.49 -3.26,-3.07 -2.58,-2.32 -2.53,-8.2 0.11,-14.6 1.21,-44.01 -1.3,-54.19 -5.36,-21.76 -26.04,-40.08 -48.21,-40.08l-72.79 0c-22.17,0 -42.85,18.32 -48.21,40.08 -2.55,10.37 -1.38,38.92 -1.3,53.59 0.03,6.12 0.87,5.59 -2.53,8.8 -3.57,3.38 -7.02,8.41 -7.02,15.06z"/>
 </g>
</svg>
