<?xml version="1.0" encoding="UTF-8"?>
<!DOCTYPE svg PUBLIC "-//W3C//DTD SVG 1.1//EN" "http://www.w3.org/Graphics/SVG/1.1/DTD/svg11.dtd">
<!-- Creator: CorelDRAW 2021 (64-Bit) -->
<svg xmlns="http://www.w3.org/2000/svg" xml:space="preserve" width="236px" height="234px" version="1.1" style="shape-rendering:geometricPrecision; text-rendering:geometricPrecision; image-rendering:optimizeQuality; fill-rule:evenodd; clip-rule:evenodd"
viewBox="0 0 236 234.01"
 xmlns:xlink="http://www.w3.org/1999/xlink"
 xmlns:xodm="http://www.corel.com/coreldraw/odm/2003">
 <defs>
  <style type="text/css">
   <![CDATA[
    .fil0 {fill:white}
   ]]>
  </style>
 </defs>
 <g id="Layer_x0020_1">
  <metadata id="CorelCorpID_0Corel-Layer"/>
  <path class="fil0" d="M31.56 213.74c0,-15.96 6.35,-31.48 18.18,-40.29 2.96,-2.21 5.41,-4.06 8.84,-5.78 12.51,-6.25 23.62,-5.33 38.53,-5.33 0.5,6.08 10.61,15.09 19.33,15.09 6.62,0 10.46,-0.33 15.93,-4.82 2.3,-1.89 2.32,-1.96 4.21,-4.28 1.17,-1.44 2.79,-3.82 2.97,-5.99 14.91,0 26.02,-0.92 38.52,5.33 3.43,1.72 5.88,3.57 8.84,5.78 11.82,8.81 18.19,24.36 18.19,40.29l0 12.73 -173.54 0 0 -12.73zm71.68 -65.08c14.11,3.29 16.06,3.29 30.18,0 0,6.76 0.01,10.92 -3.02,14.91 -6.16,8.12 -17.41,8.41 -23.94,0.27 -3.19,-3.98 -3.22,-8.19 -3.22,-15.18zm7.54 -24.05c0,-4.83 7.75,-3.77 10.85,-3.77 5.48,0 5.48,7.55 0,7.55 -3.1,0 -10.85,1.06 -10.85,-3.78zm-45.27 -8.01l0 -3.3 8.02 0c0.62,2.65 1.29,5 1.88,7.54 -4.91,0 -9.9,0.69 -9.9,-4.24zm15.09 -13.21l0 -23.58c0,-5.89 7.34,-3.7 16.42,-4.79 11.1,-1.33 22.09,-5.56 31.36,-11.09 2.1,-1.25 4.7,-2.89 6.52,-4.32 2.18,-1.71 3.77,-3.25 6.06,-4.79 0.41,1.52 3.17,4.18 4.31,5.59 13.56,16.74 10.78,11.24 10.78,42.98 0,17.38 -8.21,29.7 -21.68,36.32 -2.22,1.09 -4.47,1.9 -7.29,2.62 -13.89,3.54 -30.52,-2.09 -38.46,-13.94l15.09 0c4.79,9.05 9.05,7.54 19.33,7.54 5.78,0 10.38,-4.96 10.38,-12.26 0,-5.19 -5.19,-10.37 -10.38,-10.37 -7.13,0 -14.26,-1.31 -18.01,5.09 -0.7,1.2 -0.83,2.45 -2.27,2.45l-17.91 0c-3.18,0 -4.25,-15.32 -4.25,-17.45zm93.37 2.36l-10.37 0 0 -22.63c7.04,0 14.62,-1.08 19,3.16 7.65,7.39 2.24,19.47 -8.63,19.47zm-123.55 -11.32c0,-6.05 5.09,-11.31 12.26,-11.31l10.38 0 0 22.63c-7.04,0 -14.63,1.07 -19.01,-3.16 -1.76,-1.71 -3.63,-4.96 -3.63,-8.16zm24.99 -22.16l-1.76 -12.86c-0.74,-5.65 -1.29,-19.16 0.87,-24.81 2.95,-7.72 10.57,-11.85 18.81,-11.85l25.94 0c8.36,0 7.41,5.46 15.81,7.3 4.57,0.99 25.56,-3.64 28.4,17.82 0.65,4.89 -1.38,16.42 -1.77,21.1l-1.96 -3.22c-0.84,-1.3 -1.46,-1.9 -2.48,-3.19 -0.95,-1.2 -1.61,-1.91 -2.57,-3.09l-10.06 -12.1c-4.95,-5.45 -7.21,1.17 -16.97,7.83 -27.69,18.89 -44.01,7.58 -52.26,17.07zm-9.9 -32.07c0,8.26 0.04,29.55 2.83,35.37l-10.37 0 0 -32.07c0,-21.09 14.75,-35.84 35.83,-35.84l49.05 0c21.08,0 35.84,14.77 35.84,35.84l0 32.07 -10.38 0c2.12,-4.41 2.83,-21.05 2.83,-27.82 0,-13 -12.01,-25.07 -25.92,-25.01 -13.99,0.07 -10.1,-1.73 -15.71,-5.04 -2.19,-1.3 -4.59,-2.49 -7.88,-2.49l-31.13 0c-12.85,0 -24.99,12.14 -24.99,24.99zm-22.63 52.82c0,6.38 0.73,9.89 5.22,14.57 2.38,2.47 6.28,5.15 9.87,5.23 0,5.76 -0.63,10.96 6.27,14.48 3.5,1.79 9.97,1.09 14.95,1.09 2.54,4.79 7.52,10.25 11.92,13.54 0.83,0.62 1.58,1.24 2.45,1.79 2.89,1.84 2.13,-0.13 2.13,11.07 -20.59,0 -30.13,-1.5 -47.73,10.28 -13.24,8.86 -23.95,27.01 -23.95,43.48l0 21.69c0,2.29 1.49,3.78 3.78,3.78l181.08 0c2.28,0 3.77,-1.49 3.77,-3.78 0,-16.33 1.64,-28.11 -5.34,-43.23 -3.59,-7.77 -11.42,-17.07 -18.33,-21.75 -2.69,-1.83 -5.44,-3.69 -8.55,-5.13 -14.45,-6.67 -23.87,-5.34 -39.46,-5.34 0,-18.74 -0.63,-3.02 13.95,-22.36 4.38,-5.81 6.34,-11.1 8.22,-19.13 8.98,0 15.56,1.02 21.5,-2.55 10.46,-6.28 12.55,-21.17 3.6,-29.63 -2.57,-2.44 -2.04,-1.84 -2,-6.49 0.09,-11.54 0.95,-34.79 -1.03,-42.83 -4.23,-17.2 -20.58,-31.68 -38.11,-31.68l-57.53 0c-17.53,0 -33.88,14.48 -38.11,31.68 -2.02,8.19 -1.09,30.76 -1.03,42.36 0.03,4.84 0.69,4.42 -2,6.96 -2.82,2.67 -5.54,6.64 -5.54,11.9z"/>
 </g>
</svg>
