<?xml version="1.0" encoding="UTF-8"?>
<!DOCTYPE svg PUBLIC "-//W3C//DTD SVG 1.1//EN" "http://www.w3.org/Graphics/SVG/1.1/DTD/svg11.dtd">
<!-- Creator: CorelDRAW 2021 (64-Bit) -->
<svg xmlns="http://www.w3.org/2000/svg" xml:space="preserve" width="280px" height="302px" version="1.1" style="shape-rendering:geometricPrecision; text-rendering:geometricPrecision; image-rendering:optimizeQuality; fill-rule:evenodd; clip-rule:evenodd"
viewBox="0 0 280 301.99"
 xmlns:xlink="http://www.w3.org/1999/xlink"
 xmlns:xodm="http://www.corel.com/coreldraw/odm/2003">
 <defs>
  <style type="text/css">
   <![CDATA[
    .fil0 {fill:white}
   ]]>
  </style>
 </defs>
 <g id="Layer_x0020_1">
  <metadata id="CorelCorpID_0Corel-Layer"/>
  <g id="_2338717433584">
   <path class="fil0" d="M207.63 224.97c-0.69,-3.61 1.8,-10.54 5.33,-14.21 5.33,-5.55 13.38,-8.22 21.31,-5.1 18.13,7.12 16.01,35.25 -6.05,37.49 -4.89,0.5 -10.47,-1.76 -14.04,-5.19 -4.36,-4.2 -5.47,-7.43 -6.55,-12.99zm-87.9 0c-0.26,-1.37 0.99,-7.17 1.44,-8.32 7.12,-18.13 35.26,-16.01 37.5,6.05 0.97,9.59 -7.1,19.31 -18.36,20.45 -7.41,0.75 -14.88,-4.23 -18.35,-10.64l-2.23 -7.54zm-87.9 0c-0.7,-3.61 1.8,-10.54 5.32,-14.21 5.33,-5.55 13.38,-8.22 21.32,-5.1 18.12,7.12 16,35.25 -6.06,37.49 -4.89,0.5 -10.47,-1.76 -14.04,-5.19 -2.54,-2.45 -4.85,-5.32 -5.67,-8.98 -0.2,-0.89 -0.18,-1.27 -0.35,-2.09 -0.43,-2.1 -0.28,-0.68 -0.52,-1.92zm-9.77 -3.66c0,8.39 0.18,11.31 4.68,18.52 1.16,1.86 1.6,1.9 2.65,3.45 -9.04,0 -13.76,1.35 -18.48,5.94 -4.1,3.98 -8.38,8.9 -8.38,16.65l0 31.13 9.76 0 0 -28.08c0,-9.47 6.4,-15.87 15.88,-15.87l46.39 0c9.34,0 15.87,6.54 15.87,15.87l0 28.08 9.77 0 0 -28.08c0,-9.47 6.4,-15.87 15.87,-15.87l46.39 0c9.34,0 15.87,6.54 15.87,15.87l0 28.08 9.77 0 0 -28.08c0,-9.47 6.4,-15.87 15.87,-15.87l46.4 0c9.33,0 15.87,6.54 15.87,15.87l0 28.08 9.77 0 0 -31.13c0,-7.61 -4.12,-12.41 -8.08,-16.34 -4.83,-4.8 -9.43,-6.25 -18.78,-6.25 5.57,-8.31 7.32,-8.47 7.32,-21.97 0,-13.08 -13.78,-26.86 -26.86,-26.86 -9.09,0 -16.37,1.36 -23.37,8.37 -8.48,8.47 -10.88,22.56 -5.94,33.15 1.84,3.94 3.42,5.12 4.89,7.31 -5.73,0 -9.17,0.14 -13.03,2.23 -5.78,3.14 -6.38,5.22 -8.94,6.93 -3.34,-2.24 -4.05,-4.43 -8.53,-6.73 -4.38,-2.26 -6.86,-2.43 -13.45,-2.43 5.57,-8.31 7.33,-8.47 7.33,-21.97 0,-13.08 -13.79,-26.86 -26.86,-26.86 -9.09,0 -16.37,1.36 -23.38,8.37 -9.74,9.74 -11.2,24.96 -3.69,37.01 1.16,1.86 1.61,1.9 2.65,3.45 -15.85,0 -15.98,5.15 -21.98,9.16 -6.57,-4.4 -5.93,-9.16 -21.97,-9.16 5.57,-8.31 7.32,-8.47 7.32,-21.97 0,-13.08 -13.78,-26.86 -26.86,-26.86 -9.09,0 -16.36,1.36 -23.37,8.37 -4.22,4.22 -8.37,12.12 -8.37,18.49z"/>
   <path class="fil0" d="M139.27 174.3c-4.24,-2.83 -9.09,-15.44 -15.51,-19.29 -2.92,-1.74 -36.64,-4.83 -57.89,-23.9l-11.73 -12.08c-16.79,-22.4 -16.75,-51.09 2.56,-71.85 3.84,-4.13 5.06,-6.09 10.52,-10.24 40.37,-30.68 102.96,-30.84 143.74,-0.26 9.47,7.11 18.6,18.68 22.55,29.95 1.02,2.91 1.64,4.95 2.28,8.1 1.49,7.36 1.44,12.79 -0.11,20.18 -6.79,32.34 -40.6,52.21 -70.94,57.87 -13.28,2.47 -11.65,2.03 -20.1,14.69 -1.39,2.07 -3.54,5.61 -5.37,6.83zm-107.44 -93.39c0,18.06 3.17,29.25 14.12,43.87 14.28,19.07 39.64,32.64 63.86,37.47 11.75,2.34 9.12,0.79 15.17,9.86 5.33,7.98 7.29,12.57 15.51,12.57 5.5,0 10.38,-8.56 12.82,-12.21 6.61,-9.92 4.05,-7.95 15.41,-10.22 13.79,-2.75 26.8,-8.09 37.05,-14.23 10.6,-6.35 19.71,-13.72 27.07,-23.59 17.47,-23.42 18.8,-51.66 2.51,-76.12 -6.33,-9.51 -13.23,-15.84 -22.57,-22.61 -15.46,-11.2 -42.23,-21.71 -68.63,-21.71 -31.52,0 -52.95,4.88 -78.02,21.49 -5.67,3.76 -5.5,4.32 -9.18,7.29 -4.85,3.9 -9.9,9.71 -13.28,14.8 -3.25,4.89 -5.48,8.94 -7.84,14.75 -1.84,4.55 -4,12.57 -4,18.59z"/>
   <path class="fil0" d="M90.43 77.24l9.77 0 0 39.07 -9.77 0 0 -39.07zm87.9 39.07l-68.37 -4.88 0 -29.91 20.26 -4.17c4.2,-1.3 9.05,-12.1 9.05,-15.37l0 -12.21c5.77,0.13 9.68,1.56 9.79,7.91 0.37,20.66 -3.97,19.56 15.84,19.56 6.11,0 12.21,0 18.32,0 -0.65,1.36 -4.89,35.38 -4.89,39.07zm-68.37 -45.17c-1.08,-2.05 -1.72,-3.66 -4.88,-3.66l-19.53 0c-2.96,0 -4.89,1.93 -4.89,4.88l0 48.83c0,2.96 1.93,4.89 4.89,4.89l19.53 0c3.11,0 4.29,-1.72 4.88,-4.27l60.79 3.92c6.57,0.99 15.21,1.3 17.2,-7.13 0.92,-3.92 1.4,-10.12 1.87,-14 0.88,-7.16 3.17,-22.78 3.17,-28.58 0,-3.81 -4.74,-8.54 -8.55,-8.54l-25.64 0c0,-10.57 1.79,-18.58 -6.35,-24.18 -4.14,-2.84 -18.28,-7.8 -22.39,2.15 -2.7,6.55 2.48,8.98 -2.77,19.82 -1.46,3.03 -1.35,2.67 -4.63,3.3 -4.47,0.87 -8.52,1.6 -12.7,2.57z"/>
   <polygon class="fil0" points="246.7,297 256.47,297 256.47,267.7 246.7,267.7 "/>
   <polygon class="fil0" points="109.96,297 119.73,297 119.73,267.7 109.96,267.7 "/>
   <polygon class="fil0" points="158.8,297 168.57,297 168.57,267.7 158.8,267.7 "/>
   <polygon class="fil0" points="22.06,297 31.83,297 31.83,267.7 22.06,267.7 "/>
   <polygon class="fil0" points="70.9,297 80.66,297 80.66,267.7 70.9,267.7 "/>
   <polygon class="fil0" points="197.87,297 207.63,297 207.63,267.7 197.87,267.7 "/>
  </g>
 </g>
</svg>
