<?xml version="1.0" encoding="UTF-8"?>
<!DOCTYPE svg PUBLIC "-//W3C//DTD SVG 1.1//EN" "http://www.w3.org/Graphics/SVG/1.1/DTD/svg11.dtd">
<!-- Creator: CorelDRAW 2021 (64-Bit) -->
<svg xmlns="http://www.w3.org/2000/svg" xml:space="preserve" width="236px" height="234px" version="1.1" style="shape-rendering:geometricPrecision; text-rendering:geometricPrecision; image-rendering:optimizeQuality; fill-rule:evenodd; clip-rule:evenodd"
viewBox="0 0 236 234.01"
 xmlns:xlink="http://www.w3.org/1999/xlink"
 xmlns:xodm="http://www.corel.com/coreldraw/odm/2003">
 <defs>
  <style type="text/css">
   <![CDATA[
    .fil0 {fill:white}
   ]]>
  </style>
 </defs>
 <g id="Layer_x0020_1">
  <metadata id="CorelCorpID_0Corel-Layer"/>
  <path class="fil0" d="M118.8 186.64l1.91 0c0.08,3.38 2.23,6.91 2.55,10.26 0.21,2.13 -2.77,6.7 -3.03,9.81l-0.95 0c-0.25,-2.99 -3.1,-7.53 -3.06,-9.48 0.03,-2.22 2.51,-7.64 2.58,-10.59zm8.6 22.93l9.63 -26.21c0.72,-1.96 3.1,-7.04 3.27,-9.15 1.49,0.4 1.7,0.98 2.87,1.91l8.6 7.17c-0.92,1.38 -1.89,1.97 -2.94,3.28 -1.18,1.47 -1.54,1.93 -2.91,3.29l-12.19 13.14c-1.14,1.14 -2,1.94 -3.11,3.1 -1.24,1.28 -1.81,2.53 -3.22,3.47zm-39.66 -26.28c0.61,-0.92 9.84,-8.64 11.47,-9.08 0.14,1.7 5.33,14.95 6.35,17.54l6.55 17.82 -12.31 -13.02c-2.22,-2.21 -3.69,-4.18 -5.97,-6.45l-6.09 -6.81zm21.02 -5.73l1.77 3.01c0.72,1.41 1.06,1.72 1.1,3.68 -0.49,-0.57 -0.58,-0.65 -0.96,-1.43 -0.42,-0.82 -0.29,-0.67 -0.66,-1.73 -0.51,-1.47 -0.95,-2.24 -1.25,-3.53zm20.07 6.21l1.91 -5.73c-0.53,2.29 -1.37,3.44 -1.91,5.73zm1.91 -6.69l0.15 0.14c-0.01,-0.01 -0.19,-0.09 -0.15,-0.14zm-53.04 5.73c0,3 6.79,8.84 8.74,10.87l14.27 15.34c1.71,2.14 2.88,3.28 4.83,5.21 1.88,1.86 2.87,3.37 4.78,5.26 1.89,1.87 3.41,3.02 4.65,5.37l-83.59 -0.02c-4.66,-0.62 -3.03,-3.9 -1.74,-6.94 2.45,-5.77 4.74,-11.09 7.04,-16.86l5.17 -12.51c0.9,-2.04 1.25,-2.2 3.44,-2.77l38.63 -9.64c-0.5,0.43 -0.97,0.84 -1.54,1.33 -0.83,0.7 -1.09,0.85 -1.88,1.47 -0.99,0.78 -2.8,2.35 -2.8,3.89zm77.89 -6.69l37.28 9.08c5.83,1.4 3.52,1.03 8.13,11.46 1.35,3.05 2.64,6.16 3.95,9.43l5.91 14.2c0.97,2.48 0.37,2.83 -0.8,4.57l-85.53 0c1.49,-2.23 13.33,-14.17 16.18,-17.75l4.92 -5.11c2.75,-3.45 4.42,-4.52 7.02,-7.79 1.49,-1.87 3.36,-3.24 4.97,-5.07 0.98,-1.11 1.05,-1.49 2.16,-2.62 2.45,-2.5 3.25,-4.31 -0.5,-7.39l-3.69 -3.01zm-38.7 -0.95c0,-1.02 1.08,-2.32 1.43,-3.82l2.87 0c0.35,1.5 1.43,2.8 1.43,3.82 0,1.02 -1.08,2.32 -1.43,3.82l-2.87 0c-0.35,-1.5 -1.43,-2.8 -1.43,-3.82zm-11.95 -8.6c2.32,0.54 3.41,1.84 5.74,2.39l-2.87 6.69c-0.77,-3.3 -2.44,-5.7 -2.87,-9.08zm26.76 8.6c-0.59,-2.52 -2.17,-3.59 -2.39,-6.21 2.32,-0.55 3.41,-1.85 5.73,-2.39l-3.34 8.6zm-24.85 -17.2l0.56 -3.81c4.29,0.34 2.08,1.9 14.73,1.9 3.71,0 6.94,-1.19 10.04,-1.92 0.76,5.21 1.57,3.76 -4.62,6.85 -6.81,3.4 -7.22,4.2 -15.29,0.16 -0.91,-0.45 -5.54,-2.44 -5.42,-3.18zm15.29 -10.04l-5.25 0c-10.74,0 -21.93,-9.45 -25.52,-20.36 -0.55,-1.68 -1.12,-4.78 -1.72,-5.92 -2.31,-4.45 -3.82,1.33 -3.82,-7.64 0,-2.43 3.7,-0.89 3.82,-6.22 8.35,4.01 22.16,3.03 30.74,-1.75 2.59,-1.45 9.12,-5.94 9.88,-8.76 3.53,0.3 8.9,3.31 16.67,-0.1 3.55,-1.56 2.9,-0.28 3.33,3.99 0.25,2.44 -0.27,6.32 0.15,8.45 0.96,4.71 3.74,-0.3 3.74,7.25 0,3.42 -1.94,2.01 -3.56,4.09 -1.82,2.34 -0.75,8.66 -7.55,16.34 -2.67,3.01 -4.76,5.06 -8.64,7.13 -3.4,1.82 -7.29,3.5 -12.27,3.5zm-19.11 -45.39c-4.18,0 -11.7,-1.54 -13.38,-3.82 5.97,0 8.45,0.02 12.97,-1.37 9.68,-2.98 20.96,-13.06 20.96,-23.48 1.04,0.76 2.14,2.5 2.66,4.02 5.11,14.82 -10.58,24.65 -23.21,24.65zm31.06 -26.76c3.66,1.94 11.57,8.42 11.94,12.9 -5.84,3.09 -6.86,2.62 -11.94,1.43 2.01,-4.18 0.45,-10.82 0,-14.33zm-42.05 15.29c0.32,-3.84 5.9,-9.97 8.79,-12.23 3.32,-2.58 9.69,-6.28 15.1,-6.41 -0.8,3.44 -0.77,5.11 -2.66,7.86 -4.46,6.51 -12.41,10.58 -21.23,10.78zm-14.34 21.5c0,4.78 -0.59,7.39 1.7,10.73 1.39,2.04 2.47,1.88 3.23,3.46 0.78,1.6 0.79,3.53 3.99,9.87 2.17,4.32 9.86,12.71 13.54,13.69 -1.05,4.52 -1.81,9.34 -2.86,13.86l-13.29 3.44c-4.39,1.1 -8.59,2.27 -13.28,3.44 -9.17,2.29 -17.58,4.44 -26.76,6.69 -8.93,2.18 -9.55,7.35 -14.26,19.19 -1.66,4.19 -3.27,7.67 -4.91,11.81 -2.63,6.62 -7.76,14.53 -1.47,20.79 1.45,1.44 3.84,2.97 6.59,2.97l179.67 0c5.51,0 9.55,-4.68 9.55,-11.47 0,-2.16 -1.2,-4.58 -1.92,-6.2l-12.34 -29.71c-1.86,-4.52 -4.15,-6.12 -9.34,-7.38 -9.05,-2.21 -17.94,-4.6 -26.67,-6.79l-19.87 -4.97c-1.59,-0.39 -5.42,-1.16 -6.79,-1.81 -1.05,-4.52 -1.81,-9.34 -2.87,-13.86 5.37,-1.43 12.91,-11.77 15.77,-18.16 0.78,-1.73 0.91,-3.23 1.63,-5.06 0.88,-2.24 5.06,-3.37 5.06,-8.79 0,-3.6 0.4,-6.07 -1.09,-8.95 -0.86,-1.65 -2.08,-2.23 -2.49,-3.24 -0.81,-2 2.72,-23.55 -19.2,-36.71 -11.77,-7.06 -26.14,-6.76 -38.22,-0.16 -9.18,5.01 -16.49,14.74 -18.6,25.36 -0.81,4.08 -0.23,6.31 -0.66,10.33 -0.3,2.86 -3.84,3.88 -3.84,7.63z"/>
  <path class="fil0" d="M17.02 137.9c2.33,0 8.93,-0.8 10.15,-1.8 0.92,-0.75 3.85,-6.81 4.18,-8.24l0.96 0c0.32,1.38 3.09,7.16 3.94,8.01 1.29,1.3 7.77,2.03 10.4,2.03 -5.16,7.7 -9.38,3 -5.74,18.63 -1.46,-0.77 -7.82,-4.78 -9.08,-4.78 -1.88,0 -6.59,3.73 -9.08,4.31 0.55,-1.14 1.44,-7.17 1.44,-9.08 0,-3.23 -5.53,-6.63 -7.17,-9.08zm5.26 -8.6c-2.66,0 -7.6,0.94 -10.11,1.36 -5,0.83 -7.1,0.38 -7.1,5.33 0,3.25 10.94,10.05 10.95,13.3l-1.66 10.32c-0.76,4.65 -1.47,7.91 3.62,7.91 1.43,0 2.83,-0.87 3.8,-1.45l10.05 -5.71c8.6,4.54 19.67,13.94 17.6,-0.4l-1.78 -10.67c0,-4.06 17.61,-13.56 8.5,-17.56 -1.1,-0.48 -3.55,-0.73 -4.79,-0.93 -2.91,-0.48 -7.12,-1.5 -9.97,-1.5 -0.33,-1.42 -0.98,-2.53 -1.64,-4.1 -1.03,-2.48 -4.73,-11.19 -6.96,-11.19 -4.48,0 -3.78,0.87 -6.85,7l-3.66 8.29z"/>
  <path class="fil0" d="M17.02 57.62c2.33,0 8.93,-0.79 10.15,-1.79 0.92,-0.76 3.85,-6.81 4.18,-8.24l0.96 0c0.32,1.37 3.09,7.15 3.94,8 1.29,1.3 7.77,2.03 10.4,2.03 -5.16,7.71 -9.38,3 -5.74,18.64 -1.46,-0.77 -7.82,-4.78 -9.08,-4.78 -1.88,0 -6.59,3.72 -9.08,4.3 0.55,-1.13 1.44,-7.17 1.44,-9.08 0,-3.23 -5.53,-6.63 -7.17,-9.08zm5.26 -8.6c-2.66,0 -7.6,0.95 -10.11,1.36 -5,0.84 -7.1,0.39 -7.1,5.33 0,3.25 10.94,10.05 10.95,13.3 0,0.72 -0.69,4.02 -0.85,4.93 -1.34,7.94 -3.18,13.31 2.81,13.31 1.43,0 2.83,-0.88 3.8,-1.46 1.11,-0.65 2.15,-1.23 3.34,-1.91 2.11,-1.22 4.53,-2.65 6.71,-3.8 8.6,4.55 19.67,13.94 17.6,-0.4l-1.78 -10.67c0,-1.96 1.34,-2.53 2.46,-3.63 3.23,-3.16 13.11,-10.82 6.04,-13.92l-14.76 -2.44c-0.33,-1.42 -0.98,-2.53 -1.64,-4.1 -1.03,-2.48 -4.73,-11.19 -6.96,-11.19 -4.48,0 -3.78,0.87 -6.85,7.01l-3.66 8.28z"/>
  <path class="fil0" d="M104.94 27.04c2.33,0 8.93,-0.8 10.15,-1.8 0.92,-0.75 3.85,-6.8 4.19,-8.23l0.95 0c0.44,1.89 2.85,6.6 4.15,7.79 1.72,1.59 7.03,2.24 10.19,2.24 -5.16,7.7 -9.38,3 -5.74,18.64 -8.82,-4.67 -8.29,-6.61 -18.15,0 0.27,-3.3 1.43,-5.95 1.43,-9.56 0,-3.23 -5.53,-6.63 -7.17,-9.08zm5.26 -8.6c-2.66,0 -7.6,0.95 -10.11,1.36 -5,0.83 -7.09,0.38 -7.09,5.33 0,1.61 6.72,7.96 8.48,9.67 3.59,3.52 2.56,3.16 0.8,13.95 -0.76,4.66 -1.47,7.92 3.62,7.92 2.27,0 11.63,-6 13.85,-7.17 8.6,4.55 19.67,13.94 17.61,-0.4l-1.79 -10.67c0,-1.96 1.34,-2.53 2.46,-3.63 1.16,-1.13 1.96,-1.95 3.11,-3.1 1.02,-1.02 9.6,-7.9 2.93,-10.82 -1.09,-0.48 -3.54,-0.74 -4.79,-0.94 -2.91,-0.48 -7.12,-1.5 -9.97,-1.5 -0.34,-1.47 -6.07,-15.29 -8.6,-15.29 -4.48,0 -3.78,0.87 -6.85,7.01 -0.72,1.43 -1.26,2.37 -1.89,3.84 -0.62,1.44 -1.47,3.12 -1.77,4.44z"/>
  <path class="fil0" d="M192.86 137.9c16.07,0 10.27,-6.83 15.29,-10.52 0.35,1.51 3.2,7.29 4.16,8.28 1.5,1.54 7.77,2.24 10.18,2.24 -0.77,2.86 -7.17,5.61 -7.17,8.6 0,3.29 0.79,7.27 1.43,10.03 -8.82,-4.67 -8.28,-6.61 -18.15,0 0.27,-3.3 1.43,-5.94 1.43,-9.55 0,-3.23 -5.53,-6.63 -7.17,-9.08zm5.26 -8.6c-2.66,0 -7.6,0.94 -10.11,1.36 -5,0.83 -7.09,0.38 -7.09,5.33 0,1.45 4.27,5.46 5.37,6.57 6.78,6.77 5.98,4.24 4.73,11.65 -1.34,7.95 -3.19,13.31 2.8,13.31 1.83,0 5.25,-2.28 7.14,-3.37 2.11,-1.21 4.53,-2.64 6.72,-3.79 2.18,1.15 4.59,2.58 6.71,3.8 5.49,3.17 12.59,7.58 10.89,-4.2 -1.57,-10.89 -3.34,-10.37 0.67,-14.3 3.23,-3.16 13.12,-10.83 6.05,-13.93l-14.77 -2.43c-0.64,-2.78 -2.63,-6.17 -3.83,-8.6 -1.2,-2.45 -2.23,-7.17 -5.72,-7.17 -3.23,0 -5.72,6.68 -7.64,10.99 -0.55,1.24 -1.63,3.52 -1.92,4.78z"/>
  <path class="fil0" d="M192.86 57.62c16.07,0 10.27,-6.83 15.29,-10.51 0.35,1.51 3.2,7.29 4.16,8.27 1.29,1.33 2.43,1.21 4.65,1.56 2.17,0.35 3.21,0.68 5.53,0.68 -0.77,2.86 -7.17,5.61 -7.17,8.6 0,3.29 0.79,7.28 1.43,10.04 -8.82,-4.67 -8.28,-6.61 -18.15,0 0.27,-3.3 1.43,-5.95 1.43,-9.56 0,-3.23 -5.53,-6.63 -7.17,-9.08zm5.26 -8.6c-2.66,0 -7.6,0.95 -10.11,1.36 -5,0.84 -7.09,0.39 -7.09,5.33 0,3.25 10.94,10.05 10.94,13.3l-1.66 10.32c-0.75,4.66 -1.46,7.92 3.62,7.92 1.43,0 2.83,-0.88 3.8,-1.46 1.11,-0.65 2.15,-1.23 3.34,-1.91 2.11,-1.22 4.53,-2.65 6.72,-3.8 2.18,1.16 4.59,2.58 6.71,3.8 5.49,3.17 12.59,7.58 10.89,-4.2 -2.02,-14 -3.91,-9.71 3.78,-17.4 1.02,-1.02 9.6,-7.9 2.94,-10.82l-14.77 -2.44c-0.64,-2.78 -2.63,-6.17 -3.83,-8.59 -1.2,-2.45 -2.23,-7.18 -5.72,-7.18 -3.34,0 -4.37,4.35 -5.57,6.86 -1.15,2.4 -3.44,6.53 -3.99,8.91z"/>
 </g>
</svg>
