<?xml version="1.0" encoding="UTF-8"?>
<!DOCTYPE svg PUBLIC "-//W3C//DTD SVG 1.1//EN" "http://www.w3.org/Graphics/SVG/1.1/DTD/svg11.dtd">
<!-- Creator: CorelDRAW 2021 (64-Bit) -->
<svg xmlns="http://www.w3.org/2000/svg" xml:space="preserve" width="236px" height="234px" version="1.1" style="shape-rendering:geometricPrecision; text-rendering:geometricPrecision; image-rendering:optimizeQuality; fill-rule:evenodd; clip-rule:evenodd"
viewBox="0 0 236 234.01"
 xmlns:xlink="http://www.w3.org/1999/xlink"
 xmlns:xodm="http://www.corel.com/coreldraw/odm/2003">
 <defs>
  <style type="text/css">
   <![CDATA[
    .fil0 {fill:white}
   ]]>
  </style>
 </defs>
 <g id="Layer_x0020_1">
  <metadata id="CorelCorpID_0Corel-Layer"/>
  <g id="_2626546624112">
   <path class="fil0" d="M82.76 31.93l0 5.46c0,13.83 12.27,27.33 25.98,30.48 0.79,0.18 0.87,0.17 1.49,0.33l1.7 0.58c-8.99,2.09 -8.92,1.07 -18.24,5.91 -5.22,2.7 -9.8,6.67 -13.53,11.05 -9.28,10.9 -11.53,22.66 -11.53,37.63l0 27.29 96.17 0 0 -35.94c0,-9.17 -3.75,-17.97 -8.23,-24.99 -6.29,-9.87 -18.19,-17.67 -30,-20.1 -1.56,-0.32 -3.47,-0.48 -5.07,-0.85 0.1,-0.07 0.27,-0.23 0.33,-0.13l1.04 -0.32c9.23,-2.15 10,-3.01 17.06,-8.45 1.83,-1.41 4.19,-4.31 5.53,-6.32 7.57,-11.39 7.54,-26.01 0.17,-37.53 -4.64,-7.27 -15.29,-15.04 -23.67,-15.04l-9.94 0c-3.49,0.23 -6.49,1.05 -11.49,3.64 -9.17,4.73 -17.77,16.19 -17.77,27.3z"/>
   <path class="fil0" d="M6.19 185.69l18.8 18.08c2.79,2.69 2.38,1.92 1.52,6.3 -0.68,3.48 -3.61,21.81 -4.37,23.39 3.63,-0.84 24.69,-12.28 26.44,-12.28 1.27,0 23.63,11.73 25.98,12.28l-5.02 -27.75c2.62,-1.75 4.32,-3.63 6.5,-5.8 2.42,-2.42 3.87,-4.12 6.72,-6.03l11.07 10.34c2.09,1.99 1.9,1.9 1.21,5.09 -0.86,3.94 -3.66,22.34 -4.53,24.15 1.7,-0.4 5,-2.03 6.68,-2.88l19.75 -9.4 19.45 9.25c1.84,0.92 4.71,2.61 6.53,3.03l-5.01 -27.75c4.94,-3.3 8.29,-8.54 13.22,-11.83 1.37,0.92 2.29,2.07 3.52,3.31 1.44,1.45 2.45,1.95 3.89,3.39 1.33,1.34 2.28,2.34 3.65,3.64 2.1,1.99 1.91,1.9 1.21,5.09 -0.86,3.94 -3.66,22.34 -4.53,24.15 1.71,-0.4 5.01,-2.03 6.69,-2.88l19.75 -9.4c1.27,0 23.63,11.73 25.98,12.28l-5.02 -27.75c1.6,-1.07 3.48,-2.77 4.9,-4.21 1.63,-1.63 2.94,-2.91 4.56,-4.55l9.59 -9.1c3.48,-3.33 2.35,-2.23 -10.71,-4.11 -2.29,-0.33 -5.56,-0.81 -7.96,-1.15 -2.95,-0.42 -5.47,-0.99 -8.58,-0.99 -0.44,-1.9 -11.55,-24.25 -13.22,-25.48 -0.67,2.88 -3.75,7.46 -5.17,10.31l-6.36 12.76c-1.44,3.06 -1.19,2.28 -8.55,3.29 -14.83,2.05 -9.23,2.51 -24.1,0.46 -3.38,-0.47 -7.3,-1.34 -10.97,-1.34 -0.44,-1.9 -11.54,-24.25 -13.21,-25.48 -0.43,1.82 -9.59,18.94 -11.53,23.07 -1.44,3.06 -1.19,2.28 -8.55,3.29 -2.39,0.33 -4.4,0.63 -6.79,0.96 -10.51,1.46 -6.02,1.06 -17.32,-0.5 -3.38,-0.47 -7.29,-1.34 -10.96,-1.34 -0.44,-1.9 -11.55,-24.25 -13.22,-25.48 -0.58,2.48 -4.54,9.07 -5.92,11.83 -1.98,3.95 -3.94,7.93 -5.89,11.86 -1.14,2.3 -1.14,1.64 -6.28,2.38l-23.84 3.5z"/>
  </g>
 </g>
</svg>
