<?xml version="1.0" encoding="UTF-8"?>
<!DOCTYPE svg PUBLIC "-//W3C//DTD SVG 1.1//EN" "http://www.w3.org/Graphics/SVG/1.1/DTD/svg11.dtd">
<!-- Creator: CorelDRAW 2021 (64-Bit) -->
<svg xmlns="http://www.w3.org/2000/svg" xml:space="preserve" width="240px" height="152px" version="1.1" style="shape-rendering:geometricPrecision; text-rendering:geometricPrecision; image-rendering:optimizeQuality; fill-rule:evenodd; clip-rule:evenodd"
viewBox="0 0 240 151.99"
 xmlns:xlink="http://www.w3.org/1999/xlink"
 xmlns:xodm="http://www.corel.com/coreldraw/odm/2003">
 <defs>
  <style type="text/css">
   <![CDATA[
    .fil0 {fill:white}
   ]]>
  </style>
 </defs>
 <g id="Layer_x0020_1">
  <metadata id="CorelCorpID_0Corel-Layer"/>
  <g id="_2626010555712">
   <path class="fil0" d="M182.21 129.75c0,-5.12 0.1,-8.83 4.62,-13.01 10.5,-9.7 26.12,-1.14 26.12,9.39 0,6.22 -0.04,8.39 -4.63,13.01 -2.75,2.77 -6.27,4.27 -10.38,4.49 -8.08,0.44 -15.73,-7.25 -15.73,-13.88zm-177.7 -20.42l0 -1.56c0.34,-1.56 1.75,-2.89 4.52,-2.89l33.01 0c6.66,0 5.46,7.69 0.45,7.69l-14.92 0 0 7.68 20.8 0c0.46,-1.99 2.09,-4.7 3.3,-6.19 8.66,-10.61 22.78,-12.05 32.5,-4.28 2.71,2.16 4.98,4.85 6.46,8.01 0.6,1.27 0.55,2.46 2.05,2.46l74.15 0 0 -27.12c0,-5.27 7.24,-3.99 7.24,-0.91l0 28.03c2.71,-0.06 1.84,-0.17 2.74,-2.23 6.18,-14.32 28.84,-18.82 39.5,-3.38 4.81,6.97 -0.66,5.61 12.47,5.61l0 -15.37c-9.96,0 -15.83,-2.91 -15.83,-14.47 0,-10.47 0.99,-8.59 14.92,-8.59 -1.03,-4.42 -5.84,-8.14 -11.3,-8.14l-42.5 0 0 4.98c0,3.37 -7.24,4.22 -7.24,-0.91l0 -66.01 -139.26 0 0 63.75c0,8.54 -7.68,6.62 -7.68,2.26l0 -66.46c0,-2.76 2.87,-6.79 7.23,-6.79l140.62 0c2.82,0 6.33,3.51 6.33,6.33l0 9.05 27.13 0c5.36,0 9.29,2.39 11.87,5.31 3.42,3.85 6.61,16.81 0.78,17.29l5.89 23.97c5.57,1.3 7.69,2.42 11.2,5.98 2.34,2.38 5.07,7.11 5.07,11.65l0 40.24c0,5.09 -7.7,3.62 -15.37,3.62 0,3.94 -0.65,6.56 -1.95,9.35 -10.69,22.95 -44.17,15.23 -44.17,-9.35l-81.39 0c0,12.16 -10.13,23.06 -22.15,23.06 -13.6,0 -23.97,-9.27 -23.97,-23.06 -26.52,0 -27.12,2.32 -27.12,-15.37l-11.31 0c-2.24,0 -3.71,-1.54 -4.07,-3.24zm64.66 3.24c19.01,0 21.58,23.63 6.79,29.85 -12.62,5.3 -25.67,-7.75 -20.36,-20.36 1.96,-4.67 6.97,-9.49 13.57,-9.49zm151.47 -19.44l0 -4.07 8.14 0 0 8.13 -4.07 0c-2.23,0 -4.07,-1.83 -4.07,-4.06zm-46.57 -28.04l0 -22.15 31.2 0c1.7,0 1.51,1.97 2.26,4.97l4.52 18.54 -34.39 0.02c-1.92,0.04 -3.59,0.45 -3.59,-1.38zm0 -37.53l28.48 0c1.66,0 3.97,1.39 4.82,2.43 1.1,1.35 1.92,3.03 1.97,5.26l-35.27 0 0 -7.69z"/>
   <path class="fil0" d="M93.13 72.33c-1.93,-1.29 -10.98,-10.76 -13.9,-13.68 -1.91,-1.92 -2.97,-3.96 -5.99,-3.96 -1.5,0 -3.17,2.11 -3.17,3.62 0,2.69 8.57,10.15 10.74,12.32 2,2 3.66,3.66 5.65,5.65 8,8 6.64,6.7 17.19,-3.84l23.51 -23.51c3.96,-3.97 4.41,-3.11 4.41,-6.9 0,-1.46 -1.97,-2.71 -3.62,-2.71 -2.3,0 -3.57,1.98 -4.86,3.28 -4.18,4.19 -28.01,28.42 -29.96,29.73z"/>
   <path class="fil0" d="M97.2 108.05c0,2.67 1.64,4.52 4.07,4.52l53.36 0c5.42,0 5.52,-7.69 0,-7.69l-53.36 0c-1.86,0 -4.07,1.52 -4.07,3.17z"/>
   <path class="fil0" d="M12.2 93.13c0,3.22 2.62,4.06 5.88,4.06l42.05 0c8.41,0 6.77,-7.68 2.26,-7.68l-46.57 0c-2.19,0 -3.62,1.43 -3.62,3.62z"/>
   <path class="fil0" d="M189.89 127.94c0,10.3 15.38,9.62 15.38,0.45 0,-10.89 -15.38,-10.16 -15.38,-0.45z"/>
   <path class="fil0" d="M62.39 127.94c0,6.77 8.16,10.25 12.8,5.57 3.27,-3.3 3.23,-7.61 0.44,-10.68 -0.74,-0.82 -1.39,-1.27 -2.38,-1.69 -6.63,-2.84 -10.86,2.8 -10.86,6.8z"/>
  </g>
 </g>
</svg>
