<?xml version="1.0" encoding="UTF-8"?>
<!DOCTYPE svg PUBLIC "-//W3C//DTD SVG 1.1//EN" "http://www.w3.org/Graphics/SVG/1.1/DTD/svg11.dtd">
<!-- Creator: CorelDRAW 2021 (64-Bit) -->
<svg xmlns="http://www.w3.org/2000/svg" xml:space="preserve" width="300px" height="300px" version="1.1" style="shape-rendering:geometricPrecision; text-rendering:geometricPrecision; image-rendering:optimizeQuality; fill-rule:evenodd; clip-rule:evenodd"
viewBox="0 0 300 299.99"
 xmlns:xlink="http://www.w3.org/1999/xlink"
 xmlns:xodm="http://www.corel.com/coreldraw/odm/2003">
 <defs>
  <style type="text/css">
   <![CDATA[
    .str0 {stroke:#13273C;stroke-width:2;stroke-linecap:round;stroke-linejoin:round;stroke-miterlimit:2.61313}
    .fil0 {fill:#13273C}
    .fil2 {fill:#E6E6E6}
    .fil1 {fill:white}
   ]]>
  </style>
 </defs>
 <g id="Layer_x0020_1">
  <metadata id="CorelCorpID_0Corel-Layer"/>
  <path class="fil0" d="M52.87 44.73c-3.21,4.9 -7.82,10.14 -13.07,18.37 -30.5,47.84 -27.56,112.62 4.84,158.5 2.08,2.95 5.08,6.37 6.71,9.13 8.14,-4.31 13.65,-13.63 21.66,-10.36 3.04,1.24 6.31,5.81 8.6,7.78 3.97,3.41 7.73,2.66 13.88,2.6 10.93,-0.1 21.85,-0.19 32.78,-0.29 12.69,-0.11 21.11,-2.84 23.13,10.46 3.09,20.4 -0.46,14.97 37.48,28.05 11.26,3.88 11.5,-1.1 21.47,-8.79 10.35,-7.99 15.02,3.61 21.45,6.14 4.05,-3.03 9.2,-5.43 13.16,-8.26 4.34,-3.1 8.35,-6.5 12.17,-9.07 1.57,-1.47 1.75,-1.73 3.07,-3.38 1.37,-1.72 2.12,-1.64 2.49,-3.64 -3.08,-3.42 -9.66,-6.01 -12.9,-9.61 -3.13,-3.48 -3.45,-13.95 -2.45,-19.49 1.09,-6.08 10.19,-5.37 16.38,-6.1 6.55,-0.78 14.08,-2.07 20.54,-2.33 1.81,-2.59 5.32,-15.43 6.18,-19.59 1.45,-7.09 2.77,-14.74 3.43,-22.55 -9.22,2.28 -9.88,2.87 -12.08,12.18 -0.79,3.35 -2.62,6.2 -6.57,6.11 -4.53,-0.11 -4.35,-3.29 -4.75,-7.48 -0.77,-8.15 -11.98,-3.69 -15.35,-0.4 -9.95,9.7 -1.75,33.3 -12.3,35.72 -6.1,1.4 -18.96,-2.86 -16.85,6.48 0.71,3.18 2.99,6.11 1.51,9.23 -2.57,5.4 -8.03,12.77 -12.64,5.3l-31.69 -53.08c-4.2,-6.78 -12.68,-3.62 -7.32,6.2 2.68,4.92 16.68,27.72 16.09,31.51 -0.5,3.15 -3.54,5.53 -7.35,4.38 -2.94,-0.88 -14.11,-16.33 -16.34,-19.27 -15.82,-20.85 -12.55,-18.5 -30.35,-18.51 -2.91,0 -9.92,-0.41 -11.91,0.8 -5.04,3.09 1.53,6.71 -12.56,11.16 -12.44,3.93 -8.86,12.13 -19.29,16.89 -2.69,1.23 -15.62,5.01 -18.45,5.28 -7.43,0.74 -7.51,-4.21 -15.02,-9.19 -6.29,-4.17 -10.16,-5.11 -5.55,-14.22 2.77,-5.47 5.4,-10.8 8.1,-16.2 2.63,-5.25 4.61,-13.43 12.09,-11.36 4.62,1.28 14.42,5.59 18.53,5.69 6.98,0.18 11.63,-8.73 12.04,-11.75 1.06,-7.64 -13.82,-25.41 2.78,-21.05 9.97,2.62 6.33,3.09 16.25,-4.37l20.34 -15.51c-0.02,-3.78 -1.24,-6.37 -0.16,-10.67 0.83,-3.3 2.09,-5.59 4.14,-7.72 4.36,-4.54 8.4,-7.02 17.3,-6.18 10.54,2.15 17.01,10.9 14.6,23.86 4.53,-0.49 27.13,-3.92 30.32,-5.2 5.31,-2.14 1.71,-8.49 3.95,-13.59 1.32,-3.02 6.97,-6.46 9.3,-8.21 3.15,-2.37 7.31,-4.78 8.26,-9.18 1.29,-5.98 -1.25,-10.43 -7.4,-8.02 -10.7,4.2 -7.07,-11.47 -6.43,-24.59 0.14,-2.89 -0.16,-5.04 -2.56,-6.14 -10.72,-4.91 -5.95,19.23 -8.44,34.3 -0.98,5.98 -5.91,4.85 -8.18,9.22 -2.26,4.34 -2.14,9.18 -5.66,11.88 -2.36,1.81 -9.75,4.86 -12.62,2.14 -2.77,-2.63 -6.48,-20.51 -9.3,-25.16 -8.97,1 -19.36,8.22 -16.21,-7.15 3.33,-16.2 4.67,-11.7 25.69,-19.56 4.42,-1.65 5.38,-3.61 6.94,-8.33 2.39,-7.19 5.53,-15.3 7.46,-22.64 -5.25,-3.14 -28.44,-7.54 -38.23,-7.91l-8.45 0c-35.83,0.68 -62.18,9.66 -90.24,31.08l-6.44 5.66z"/>
  <path class="fil1" d="M181.11 116.13c-0.87,1.7 -1.41,3.96 -2.24,5.79 -0.96,2.1 -2.15,3.86 -3.29,5.71 -2.16,3.49 -5.24,7.98 -7.8,10.24 -4.28,8.78 -11.12,-1.93 -13.44,-5.06 -1.9,-2.57 -3.22,-4.51 -4.98,-7.44 -1.62,-2.71 -2.58,-6.06 -4.13,-8.53l-20.34 15.51c-9.92,7.46 -6.28,6.99 -16.25,4.37 -16.6,-4.36 -1.72,13.41 -2.78,21.05 -0.41,3.02 -5.06,11.93 -12.04,11.75 -4.11,-0.1 -13.91,-4.41 -18.53,-5.69 -7.48,-2.07 -9.46,6.11 -12.09,11.36 -2.7,5.4 -5.33,10.73 -8.1,16.2 -4.61,9.11 -0.74,10.05 5.55,14.22 7.51,4.98 7.59,9.93 15.02,9.19 2.83,-0.27 15.76,-4.05 18.45,-5.28 10.43,-4.76 6.85,-12.96 19.29,-16.89 14.09,-4.45 7.52,-8.07 12.56,-11.16 1.99,-1.21 9,-0.8 11.91,-0.8 17.8,0.01 14.53,-2.34 30.35,18.51 2.23,2.94 13.4,18.39 16.34,19.27 3.81,1.15 6.85,-1.23 7.35,-4.38 0.59,-3.79 -13.41,-26.59 -16.09,-31.51 -5.36,-9.82 3.12,-12.98 7.32,-6.2l31.69 53.08c4.61,7.47 10.07,0.1 12.64,-5.3 1.48,-3.12 -0.8,-6.05 -1.51,-9.23 -2.11,-9.34 10.75,-5.08 16.85,-6.48 10.55,-2.42 2.35,-26.02 12.3,-35.72 3.37,-3.29 14.58,-7.75 15.35,0.4 0.4,4.19 0.22,7.37 4.75,7.48 3.95,0.09 5.78,-2.76 6.57,-6.11 2.2,-9.31 2.86,-9.9 12.08,-12.18l0 -0.62 0 -13.2c-0.09,-4.24 -0.37,-8.25 -1.18,-15.54 -2.47,-22.24 -13.59,-48.46 -26.27,-65.28l-6.7 -8.56c-8.23,-10.58 -25.35,-24.58 -37.09,-31.3 -5.57,-3.19 -21.17,-11.41 -26.4,-11.9 -1.93,7.34 -5.07,15.45 -7.46,22.64 -1.56,4.72 -2.52,6.68 -6.94,8.33 -21.02,7.86 -22.36,3.36 -25.69,19.56 -3.15,15.37 7.24,8.15 16.21,7.15 2.82,4.65 6.53,22.53 9.3,25.16 2.87,2.72 10.26,-0.33 12.62,-2.14 3.52,-2.7 3.4,-7.54 5.66,-11.88 2.27,-4.37 7.2,-3.24 8.18,-9.22 2.49,-15.07 -2.28,-39.21 8.44,-34.3 2.4,1.1 2.7,3.25 2.56,6.14 -0.64,13.12 -4.27,28.79 6.43,24.59 6.15,-2.41 8.69,2.04 7.4,8.02 -0.95,4.4 -5.11,6.81 -8.26,9.18 -2.33,1.75 -7.98,5.19 -9.3,8.21 -2.24,5.1 1.36,11.45 -3.95,13.59 -3.19,1.28 -25.79,4.71 -30.32,5.2z"/>
  <path class="fil1" d="M51.35 230.73l0.09 0.48c2.07,0.87 2.03,2.05 3.61,3.74 20.32,21.69 42.19,36.22 72.91,44.11 58.03,14.9 99.38,-12.05 103.68,-12.26l0.16 -0.48c-6.43,-2.53 -11.1,-14.13 -21.45,-6.14 -9.97,7.69 -10.21,12.67 -21.47,8.79 -37.94,-13.08 -34.39,-7.65 -37.48,-28.05 -2.02,-13.3 -10.44,-10.57 -23.13,-10.46 -10.93,0.1 -21.85,0.19 -32.78,0.29 -6.15,0.06 -9.91,0.81 -13.88,-2.6 -2.29,-1.97 -5.56,-6.54 -8.6,-7.78 -8.01,-3.27 -13.52,6.05 -21.66,10.36z"/>
  <path class="fil1" d="M36.14 243.1c0.78,1.16 2.75,3.58 3.82,4.67l8.48 9.04c5.45,5.52 18.12,15.26 24.83,19.26 22.19,13.22 45.16,20.29 69.15,21.29l11.99 0c10.75,-0.44 21.7,-2.06 32.87,-4.85 18.02,-4.51 32.68,-12.9 47.47,-22.84 -1.18,-1.87 -1.67,-1.93 -3.11,-2.87 -4.3,0.21 -45.65,27.16 -103.68,12.26 -30.72,-7.89 -52.59,-22.42 -72.91,-44.11 -1.58,-1.69 -1.54,-2.87 -3.61,-3.74 -1.78,0.91 -14.07,10.46 -15.3,11.89z"/>
  <path class="fil0 str0" d="M36.14 243.1c1.23,-1.43 13.52,-10.98 15.3,-11.89l-0.09 -0.48c-1.63,-2.76 -4.63,-6.18 -6.71,-9.13 -32.4,-45.88 -35.34,-110.66 -4.84,-158.5 5.25,-8.23 10.48,-12.86 13.68,-17.76 -2.75,0.93 -14.99,13.81 -17.41,16.83 -10.85,13.59 -18.77,28.14 -24.44,45.08 -4.49,13.41 -6.82,27.75 -7.13,42.1l0 6.63c0.52,23.8 6.56,47.26 17.54,66.19 4.28,7.37 8.69,14.66 14.1,20.93z"/>
  <path class="fil1" d="M262.69 241.97c2.67,-1.62 10.17,-13.68 12.15,-17.32 1.87,-3.41 3.29,-6.04 5.09,-9.61 1.24,-2.46 3.82,-8.01 4.33,-10.6 -6.46,0.26 -13.99,1.55 -20.54,2.33 -6.19,0.73 -15.29,0.02 -16.38,6.1 -1,5.54 -0.68,16.01 2.45,19.49 3.24,3.6 9.82,6.19 12.9,9.61z"/>
  <path class="fil1" d="M167.78 137.87c2.56,-2.26 5.64,-6.75 7.8,-10.24 1.14,-1.85 2.33,-3.61 3.29,-5.71 0.83,-1.83 1.37,-4.09 2.24,-5.79 2.41,-12.96 -4.06,-21.71 -14.6,-23.86 -0.84,2.73 -15.67,5.48 -12.19,22.47 1.45,7.09 9.67,20.01 13.46,23.13z"/>
  <path class="fil1" d="M121.89 77.01c-2.61,1.01 -7.78,6.89 -9.73,9.24 -3.75,4.51 -2.66,8.49 -0.68,14.26 2.09,6.08 -0.95,8.78 -3.61,13.12 -4.85,7.91 -1.68,7.4 5.94,5.35 16.61,-4.45 17.13,-2.24 11.65,-18.88 -1.74,-5.28 -4.09,-9.74 -0.26,-14.36 1.24,-1.49 3.33,-2.92 2.26,-6.24 -0.68,-2.11 -2.94,-3.5 -5.57,-2.49z"/>
  <path class="fil2" d="M145.23 116.84c1.55,2.47 2.51,5.82 4.13,8.53 1.76,2.93 3.08,4.87 4.98,7.44 2.32,3.13 9.16,13.84 13.44,5.06 -3.79,-3.12 -12.01,-16.04 -13.46,-23.13 -3.48,-16.99 11.35,-19.74 12.19,-22.47 -8.9,-0.84 -12.94,1.64 -17.3,6.18 -2.05,2.13 -3.31,4.42 -4.14,7.72 -1.08,4.3 0.14,6.89 0.16,10.67z"/>
  <path class="fil1" d="M93.21 92.61c-2.07,1.15 -5.77,6.82 -7.3,9.23 -2.48,3.91 0.46,9.98 5.67,7.39 1.43,-0.72 5.9,-7.44 7.11,-9.32 3.19,-4.96 -1.42,-9.56 -5.48,-7.3z"/>
  <path class="fil0" d="M161.78 103.94c-9.81,2.23 -5.48,15.88 3.47,13.39 8.27,-2.3 5.3,-15.37 -3.47,-13.39z"/>
  <path class="fil1" d="M149.4 197.32c-2.48,1.19 -5,5.9 -6.12,8.84 -1.6,4.24 2.08,8.2 6.28,6.27 1.85,-0.85 4.96,-6.81 5.84,-8.92 1.75,-4.2 -1.81,-8.19 -6,-6.19z"/>
  <path class="fil1" d="M161.46 221.94c-0.92,4.96 8.09,9.28 8.69,9.35 2.9,0.33 5.02,-1.98 6.44,-3.17 2.15,-1.79 3.71,-2.23 3.19,-5.57 -2.13,-0.91 -16.18,-2.08 -18.32,-0.61z"/>
  <path class="fil0" d="M245.62 64.57c-8.42,3.52 3.16,14.98 8.18,13.03 7.24,-2.83 -2.63,-15.34 -8.18,-13.03z"/>
  <path class="fil1" d="M231.8 266.32l-0.16 0.48c1.44,0.94 1.93,1 3.11,2.87l11.64 -9.61c1.94,-1.48 10.08,-9.09 10.74,-11.07 -3.82,2.57 -7.83,5.97 -12.17,9.07 -3.96,2.83 -9.11,5.23 -13.16,8.26z"/>
 </g>
</svg>
